<svg width="641" height="578" viewBox="0 0 641 578" fill="none" xmlns="http://www.w3.org/2000/svg">
<g clip-path="url(#clip0_20_60)">
<path d="M122.246 394.6C121.427 394.988 120.51 395.114 119.617 394.962C118.724 394.81 117.9 394.387 117.255 393.751C116.611 393.115 116.177 392.296 116.014 391.406C115.85 390.515 115.964 389.596 116.341 388.773C116.273 388.321 116.224 387.997 116.156 387.546C116.082 387.473 116.008 387.399 115.934 387.326C108.443 379.949 95.7542 385.324 95.7786 395.835C95.8001 405.165 94.9254 414.886 97.404 423.724C98.5013 427.631 100.268 431.317 102.625 434.619C87.8017 420.947 76.0915 404.247 68.289 385.653C66.3359 380.985 64.6454 376.212 63.2253 371.355C62.0646 367.372 61.0815 363.347 60.2759 359.279C55.9287 337.198 56.8821 314.401 63.0581 292.76C67.8998 286.718 70.7728 279.337 71.2898 271.613C71.4846 268.832 71.2758 266.038 70.6699 263.317C70.0012 263.706 69.3063 264.064 68.6182 264.406C68.4026 264.51 68.1755 264.618 67.96 264.722L67.8784 264.76C67.1154 265.12 66.2647 265.252 65.4286 265.139C64.5926 265.027 63.8068 264.675 63.166 264.127C62.5252 263.578 62.0566 262.856 61.8166 262.048C61.5767 261.239 61.5756 260.378 61.8135 259.569C61.9619 259.066 62.1105 258.562 62.2594 258.059C62.481 257.285 62.719 256.518 62.9406 255.745C62.9711 255.667 62.9972 255.588 63.0186 255.508C63.276 254.624 63.5379 253.752 63.7953 252.868C62.1897 251.763 60.3507 251.045 58.4216 250.768C51.766 249.871 45.2957 255.121 43.4546 261.571C41.602 268.025 43.7069 275.114 47.5775 280.594C50.8877 285.286 55.3754 288.982 60.0793 292.315C59.9444 292.808 59.7931 293.293 59.6583 293.786C57.2061 302.815 55.6449 312.063 54.9971 321.396C52.326 312.359 47.5471 304.085 41.0537 297.255C34.7495 290.995 26.1998 287.076 18.2821 282.695C8.7716 277.433 -2.55715 286.198 0.512365 296.623C0.54209 296.724 0.572046 296.824 0.602242 296.925C1.55336 297.038 2.49937 297.184 3.44024 297.363C4.62484 297.595 5.71182 298.179 6.55876 299.039C7.4057 299.899 7.9731 300.994 8.18661 302.182C8.40012 303.37 8.24978 304.594 7.7553 305.695C7.26081 306.796 6.44526 307.722 5.41546 308.352L5.31001 308.416C6.74342 311.075 8.37693 313.621 10.1964 316.032C15.349 322.733 21.8305 328.297 29.2348 332.376C36.639 336.455 44.8062 338.961 53.2243 339.736C53.7736 339.779 54.3114 339.827 54.8558 339.858C55.573 352.509 57.9324 365.012 61.8747 377.054C64.2226 384.15 67.1406 391.044 70.6001 397.669L70.4635 397.44C65.7854 390.42 58.8277 385.23 50.7653 382.745C38.8354 379.162 25.1655 381.718 13.1338 379.859C7.34205 378.963 2.95647 385.08 5.996 390.09C6.0445 390.17 6.09323 390.25 6.14219 390.329C7.81354 390.314 9.48419 390.403 11.1445 390.596C12.0956 390.708 13.0416 390.854 13.9825 391.034C15.1671 391.265 16.2541 391.849 17.1011 392.709C17.948 393.569 18.5154 394.665 18.7289 395.853C18.9424 397.04 18.7921 398.265 18.2976 399.366C17.8031 400.467 16.9875 401.393 15.9577 402.022L15.8522 402.087C15.7759 402.132 15.7111 402.173 15.6349 402.219C20.5103 407.025 26.1769 410.956 32.3862 413.84C40.0084 417.287 48.2545 419.141 56.6189 419.288C64.9832 419.436 73.2895 417.874 81.0285 414.697L81.0402 414.693C86.9404 422.92 93.6799 430.513 101.15 437.347L133.51 423.826C133.475 423.418 133.425 423.004 133.379 422.601C130.462 424.04 127.38 425.118 124.202 425.809C125.372 421.86 126.532 417.888 127.701 413.939C127.732 413.862 127.758 413.783 127.779 413.702C128.367 411.686 128.971 409.676 129.559 407.66L129.559 407.658C127.692 403.01 125.235 398.621 122.247 394.601L122.246 394.6ZM54.7263 337.201L54.7337 337.171L54.736 337.225L54.7263 337.201ZM74.5616 404.799L74.0215 404.29C73.8441 403.833 73.6551 403.38 73.4496 402.921C73.3962 402.794 73.3197 402.676 73.2664 402.548C73.7052 403.305 74.1325 404.066 74.5829 404.818L74.5616 404.799Z" fill="#3DAD6A"/>
<path d="M419.196 172.261C417.99 177.122 417.415 182.119 417.486 187.127L417.487 187.129C418.806 188.763 420.139 190.384 421.459 192.018C421.51 192.084 421.564 192.147 421.622 192.207C424.224 195.399 426.826 198.616 429.429 201.809C426.229 202.397 422.97 202.591 419.724 202.387C419.837 202.776 419.95 203.179 420.076 203.568H455.148C459.404 194.382 462.695 184.779 464.965 174.913H464.978C473.343 174.86 481.61 173.099 489.271 169.738C496.931 166.378 503.825 161.488 509.528 155.369C514.145 150.314 517.857 144.502 520.502 138.188C520.414 138.176 520.339 138.163 520.251 138.151L520.128 138.132C518.936 137.948 517.826 137.408 516.945 136.583C516.064 135.758 515.453 134.686 515.192 133.508C514.931 132.329 515.032 131.1 515.482 129.98C515.932 128.86 516.709 127.902 517.713 127.231C518.511 126.704 519.328 126.204 520.163 125.733C521.62 124.915 523.127 124.189 524.675 123.559C524.69 123.467 524.704 123.374 524.718 123.282C525.59 117.487 519.185 113.534 514.186 116.593C503.802 122.948 490.203 125.859 480.578 133.764C474.097 139.165 469.679 146.636 468.07 154.917L468.033 155.181C468.67 147.734 468.703 140.249 468.133 132.797C467.126 120.166 464.481 107.719 460.264 95.7707C460.754 95.5319 461.232 95.2805 461.722 95.0292C469.19 91.0686 475.76 85.6081 481.018 78.9901C486.277 72.3722 490.111 64.7394 492.281 56.5704C493.03 53.6442 493.555 50.6653 493.853 47.6594L493.73 47.6406C492.537 47.4567 491.428 46.9168 490.547 46.0917C489.666 45.2665 489.055 44.1946 488.794 43.0163C488.533 41.838 488.634 40.6084 489.084 39.4885C489.534 38.3686 490.311 37.4107 491.315 36.7402C492.113 36.2124 492.93 35.713 493.765 35.242C493.754 35.1374 493.742 35.0329 493.731 34.9284C492.542 24.126 478.71 20.407 471.964 28.9285C466.348 36.023 459.971 42.9345 456.568 51.1409C453.211 59.9464 451.993 69.423 453.014 78.7912C448.816 70.4289 443.809 62.4981 438.065 55.1124C437.75 54.7102 437.423 54.3206 437.109 53.9184C440.164 49.0294 442.879 43.889 444.124 38.2836C445.582 31.7356 444.79 24.383 440.591 19.1422C436.405 13.9012 428.41 11.551 422.615 14.9444C420.942 15.9436 419.522 17.3156 418.467 18.9536C419.045 19.67 419.623 20.3738 420.202 21.0901C420.253 21.1561 420.307 21.2191 420.365 21.2788C420.868 21.9071 421.383 22.523 421.886 23.1514C422.218 23.5583 422.549 23.9655 422.88 24.3729C423.412 25.0278 423.743 25.8224 423.833 26.6609C423.924 27.4995 423.77 28.3463 423.39 29.0995C423.01 29.8526 422.421 30.48 421.693 30.906C420.965 31.332 420.129 31.5386 419.286 31.5008L419.196 31.4967C418.957 31.4841 418.706 31.4715 418.467 31.459C417.7 31.4088 416.921 31.3459 416.154 31.2454C416.644 33.9893 417.529 36.6478 418.781 39.1382C422.237 46.0664 427.735 51.7688 434.532 55.477C448.577 73.0634 458.248 93.7299 462.753 115.779C463.583 119.839 464.228 123.932 464.689 128.059C465.252 133.087 465.533 138.143 465.531 143.203C465.503 163.368 461.139 183.29 452.734 201.62C453.636 197.664 453.844 193.582 453.35 189.555C452.228 180.444 447.673 171.813 444.094 163.196C440.063 153.488 426.282 153.421 422.216 163.115C422.175 163.211 422.135 163.307 422.096 163.403C422.207 163.846 422.287 164.164 422.398 164.606C423.063 165.221 423.523 166.025 423.716 166.91C423.908 167.795 423.824 168.717 423.475 169.553C423.125 170.388 422.528 171.096 421.763 171.58C420.997 172.064 420.102 172.302 419.197 172.26L419.196 172.261ZM459.359 93.2947L459.341 93.2447L459.359 93.2696V93.2947ZM467.115 163.312C467.241 162.445 467.341 161.578 467.454 160.711C467.454 160.849 467.429 160.987 467.429 161.126C467.417 161.628 467.417 162.118 467.429 162.609L467.128 163.287L467.115 163.312Z" fill="#3DAD6A"/>
<path d="M383.862 388.337H276.564C275.046 388.34 273.592 388.945 272.52 390.019C271.448 391.094 270.846 392.55 270.848 394.067V563.535H389.593V394.067C389.593 393.315 389.446 392.57 389.158 391.874C388.87 391.179 388.448 390.547 387.915 390.015C387.383 389.483 386.751 389.061 386.056 388.773C385.36 388.485 384.615 388.337 383.862 388.337ZM330.574 484.627C327.219 484.611 324.005 483.272 321.632 480.899C319.26 478.527 317.92 475.314 317.904 471.959V452.412C317.904 449.053 319.239 445.831 321.615 443.455C323.991 441.079 327.214 439.745 330.574 439.745C333.934 439.745 337.157 441.079 339.533 443.455C341.909 445.831 343.244 449.053 343.244 452.412V471.959C343.229 475.314 341.889 478.527 339.516 480.899C337.143 483.272 333.93 484.611 330.574 484.627Z" fill="#E6E6E6"/>
<path d="M270.48 558.114V574.465C270.482 575.312 270.819 576.124 271.418 576.723C272.017 577.322 272.83 577.659 273.677 577.661H386.764C387.611 577.657 388.422 577.319 389.02 576.72C389.619 576.122 389.957 575.311 389.961 574.465V558.114L270.48 558.114Z" fill="#CCCCCC"/>
<path d="M561.537 123.864H102.882C98.941 123.871 95.1636 125.438 92.3772 128.224C89.5908 131.01 88.0226 134.787 88.0163 138.727V448.172C88.0201 452.113 89.5875 455.891 92.3744 458.678C95.1614 461.464 98.9402 463.031 102.882 463.035H561.537C565.479 463.031 569.258 461.464 572.045 458.678C574.832 455.891 576.399 452.113 576.403 448.172V138.727C576.396 134.787 574.828 131.01 572.042 128.224C569.255 125.438 565.478 123.871 561.537 123.864Z" fill="#E6E6E6"/>
<path d="M557.707 134.595H106.715C104.605 134.6 102.582 135.442 101.092 136.936C99.6009 138.429 98.7638 140.453 98.7637 142.564V444.337C98.7661 446.444 99.6046 448.465 101.095 449.955C102.586 451.446 104.607 452.284 106.715 452.287H557.707C559.815 452.284 561.836 451.446 563.327 449.955C564.818 448.465 565.656 446.444 565.659 444.337V142.564C565.659 140.453 564.821 138.429 563.331 136.936C561.84 135.442 559.818 134.6 557.707 134.595Z" fill="white"/>
<path d="M156.181 434.987C156.191 440.894 155.139 446.754 153.074 452.288H106.714C104.606 452.285 102.586 451.446 101.096 449.956C99.606 448.467 98.7673 446.447 98.7637 444.34V386.041C101.354 385.622 103.974 385.412 106.598 385.413C113.109 385.412 119.557 386.694 125.573 389.185C131.589 391.677 137.055 395.328 141.66 399.932C146.264 404.535 149.916 410 152.408 416.015C154.9 422.03 156.182 428.477 156.181 434.987Z" fill="#6C63FF"/>
<path d="M565.659 142.564V405.228C530.958 415.341 493.906 413.874 460.114 401.051C426.321 388.227 397.627 364.745 378.376 334.158C359.126 303.572 350.366 267.547 353.425 231.539C356.483 195.53 371.192 161.498 395.326 134.595H557.707C559.818 134.6 561.84 135.442 563.331 136.936C564.821 138.429 565.659 140.453 565.659 142.564Z" fill="#E6E6E6"/>
<path d="M535.038 176.177H113.044C112.605 176.168 112.187 175.987 111.88 175.673C111.573 175.36 111.401 174.938 111.401 174.499C111.401 174.06 111.573 173.639 111.88 173.325C112.187 173.012 112.605 172.831 113.044 172.821H535.038C535.477 172.831 535.895 173.012 536.202 173.325C536.509 173.639 536.681 174.06 536.681 174.499C536.681 174.938 536.509 175.36 536.202 175.673C535.895 175.987 535.477 176.168 535.038 176.177Z" fill="#CACACA"/>
<path d="M141.769 164.255C147.201 164.255 151.604 159.754 151.604 154.203C151.604 148.651 147.201 144.151 141.769 144.151C136.338 144.151 131.935 148.651 131.935 154.203C131.935 159.754 136.338 164.255 141.769 164.255Z" fill="#3F3D56"/>
<path d="M175.744 164.255C181.176 164.255 185.579 159.754 185.579 154.203C185.579 148.651 181.176 144.151 175.744 144.151C170.312 144.151 165.909 148.651 165.909 154.203C165.909 159.754 170.312 164.255 175.744 164.255Z" fill="#3F3D56"/>
<path d="M209.719 164.255C215.15 164.255 219.553 159.754 219.553 154.203C219.553 148.651 215.15 144.151 209.719 144.151C204.287 144.151 199.884 148.651 199.884 154.203C199.884 159.754 204.287 164.255 209.719 164.255Z" fill="#3F3D56"/>
<path d="M514.583 146.642H490.449C489.97 146.652 489.515 146.848 489.18 147.19C488.845 147.531 488.657 147.991 488.657 148.469C488.657 148.947 488.845 149.407 489.18 149.748C489.515 150.09 489.97 150.287 490.449 150.296H514.583C515.061 150.287 515.516 150.09 515.851 149.748C516.186 149.407 516.374 148.947 516.374 148.469C516.374 147.991 516.186 147.531 515.851 147.19C515.516 146.848 515.061 146.652 514.583 146.642Z" fill="#3F3D56"/>
<path d="M514.583 153.5H490.449C489.97 153.51 489.515 153.706 489.18 154.048C488.845 154.39 488.657 154.849 488.657 155.327C488.657 155.806 488.845 156.265 489.18 156.606C489.515 156.948 489.97 157.145 490.449 157.154H514.583C515.061 157.145 515.516 156.948 515.851 156.606C516.186 156.265 516.374 155.806 516.374 155.327C516.374 154.849 516.186 154.39 515.851 154.048C515.516 153.706 515.061 153.51 514.583 153.5Z" fill="#3F3D56"/>
<path d="M514.583 160.349H490.449C489.97 160.359 489.515 160.555 489.18 160.897C488.845 161.239 488.657 161.698 488.657 162.176C488.657 162.655 488.845 163.114 489.18 163.456C489.515 163.797 489.97 163.994 490.449 164.003H514.583C515.061 163.994 515.516 163.797 515.851 163.456C516.186 163.114 516.374 162.655 516.374 162.176C516.374 161.698 516.186 161.239 515.851 160.897C515.516 160.555 515.061 160.359 514.583 160.349Z" fill="#3F3D56"/>
<path d="M289.795 60.1621C291.281 57.0292 284.394 50.6526 274.413 45.9194C264.431 41.1862 255.135 39.8889 253.649 43.0218C252.162 46.1547 259.049 52.5314 269.031 57.2646C279.012 61.9977 288.308 63.295 289.795 60.1621Z" fill="#2F2E41"/>
<path d="M372.173 92.4304C374.832 90.2044 371.238 81.5347 364.146 73.0659C357.054 64.5972 349.15 59.5365 346.49 61.7624C343.831 63.9884 347.425 72.6581 354.517 81.1268C361.609 89.5955 369.513 94.6563 372.173 92.4304Z" fill="#2F2E41"/>
<path d="M316.781 110.149C338.875 110.149 356.786 92.2417 356.786 70.1514C356.786 48.0611 338.875 30.1534 316.781 30.1534C294.687 30.1534 276.776 48.0611 276.776 70.1514C276.776 92.2417 294.687 110.149 316.781 110.149Z" fill="#2F2E41"/>
<path d="M333.714 101.542H321.56V123.313H333.714V101.542Z" fill="#2F2E41"/>
<path d="M309.407 101.542H297.253V123.313H309.407V101.542Z" fill="#2F2E41"/>
<path d="M323.586 127.364C329.179 127.364 333.714 125.664 333.714 123.566C333.714 121.469 329.179 119.769 323.586 119.769C317.992 119.769 313.458 121.469 313.458 123.566C313.458 125.664 317.992 127.364 323.586 127.364Z" fill="#2F2E41"/>
<path d="M299.279 126.857C304.872 126.857 309.407 125.157 309.407 123.06C309.407 120.963 304.872 119.263 299.279 119.263C293.685 119.263 289.151 120.963 289.151 123.06C289.151 125.157 293.685 126.857 299.279 126.857Z" fill="#2F2E41"/>
<path d="M304.22 19.8727C307.792 5.48939 323.56 -2.97487 339.439 0.967232C355.318 4.90933 365.294 19.7651 361.722 34.1484C358.15 48.5317 346.298 48.5781 330.42 44.636C314.541 40.6938 300.647 34.256 304.22 19.8727Z" fill="#E6B367"/>
<path d="M310.8 75.0468C318.166 75.0468 324.138 69.0764 324.138 61.7115C324.138 54.3466 318.166 48.3761 310.8 48.3761C303.434 48.3761 297.462 54.3466 297.462 61.7115C297.462 69.0764 303.434 75.0468 310.8 75.0468Z" fill="white"/>
<path d="M309.963 71.5926C312.418 71.5926 314.409 69.6025 314.409 67.1475C314.409 64.6926 312.418 62.7024 309.963 62.7024C307.507 62.7024 305.517 64.6926 305.517 67.1475C305.517 69.6025 307.507 71.5926 309.963 71.5926Z" fill="#3F3D56"/>
<path d="M327.748 85.8551C328.627 90.6857 316.843 98.9542 312.012 99.8336C309.691 100.256 307.298 99.7394 305.359 98.3977C303.42 97.056 302.093 94.9991 301.671 92.6794L301.668 92.6622C300.793 87.8308 304.529 86.1211 309.361 85.2465C314.194 84.3719 326.873 81.0238 327.748 85.8551Z" fill="white"/>
<path d="M469.458 366.043C476.19 357.286 479.419 348.474 476.669 346.361C473.919 344.248 466.233 349.634 459.5 358.391C452.768 367.148 449.539 375.96 452.289 378.073C455.039 380.186 462.725 374.8 469.458 366.043Z" fill="#2F2E41"/>
<path d="M506.101 395.27C528.195 395.27 546.106 377.363 546.106 355.272C546.106 333.182 528.195 315.274 506.101 315.274C484.006 315.274 466.095 333.182 466.095 355.272C466.095 377.363 484.006 395.27 506.101 395.27Z" fill="#2F2E41"/>
<path d="M524.331 386.663H512.177V408.434H524.331V386.663Z" fill="#2F2E41"/>
<path d="M500.024 386.663H487.87V408.434H500.024V386.663Z" fill="#2F2E41"/>
<path d="M514.203 412.485C519.796 412.485 524.331 410.784 524.331 408.687C524.331 406.59 519.796 404.89 514.203 404.89C508.609 404.89 504.075 406.59 504.075 408.687C504.075 410.784 508.609 412.485 514.203 412.485Z" fill="#2F2E41"/>
<path d="M489.896 411.978C495.489 411.978 500.024 410.278 500.024 408.181C500.024 406.084 495.489 404.384 489.896 404.384C484.302 404.384 479.768 406.084 479.768 408.181C479.768 410.278 484.302 411.978 489.896 411.978Z" fill="#2F2E41"/>
<path d="M505.088 358.816C512.639 358.816 518.76 352.696 518.76 345.146C518.76 337.596 512.639 331.476 505.088 331.476C497.536 331.476 491.415 337.596 491.415 345.146C491.415 352.696 497.536 358.816 505.088 358.816Z" fill="white"/>
<path d="M504.159 356.204C506.676 356.204 508.716 354.164 508.716 351.647C508.716 349.131 506.676 347.09 504.159 347.09C501.642 347.09 499.601 349.131 499.601 351.647C499.601 354.164 501.642 356.204 504.159 356.204Z" fill="#3F3D56"/>
<path d="M544.907 318.075C548.137 303.611 537.812 288.996 521.844 285.431C505.876 281.866 490.313 290.702 487.083 305.166C483.852 319.63 494.435 324.964 510.403 328.529C526.37 332.094 541.677 332.539 544.907 318.075Z" fill="#6C63FF"/>
<path d="M553.386 389.999C556.506 388.486 555.128 379.203 550.308 369.265C545.487 359.327 539.05 352.497 535.929 354.01C532.809 355.523 534.187 364.806 539.008 374.744C543.828 384.683 550.265 391.512 553.386 389.999Z" fill="#2F2E41"/>
<path d="M525.751 369.702C525.751 373.617 515.669 381.347 504.482 381.347C493.295 381.347 482.806 370.325 482.806 366.411C482.806 362.496 493.295 367.17 504.482 367.17C515.669 367.17 525.751 365.787 525.751 369.702Z" fill="white"/>
<path d="M476.108 529.936C498.203 529.936 516.114 512.029 516.114 489.938C516.114 467.848 498.203 449.94 476.108 449.94C454.014 449.94 436.103 467.848 436.103 489.938C436.103 512.029 454.014 529.936 476.108 529.936Z" fill="#2F2E41"/>
<path d="M470.032 521.329H457.878V543.1H470.032V521.329Z" fill="#2F2E41"/>
<path d="M494.339 521.329H482.185V543.1H494.339V521.329Z" fill="#2F2E41"/>
<path d="M476.235 550.463C477.131 548.567 473.757 545.094 468.699 542.706C463.641 540.318 458.815 539.919 457.919 541.816C457.023 543.712 460.397 547.185 465.455 549.573C470.513 551.961 475.34 552.36 476.235 550.463Z" fill="#2F2E41"/>
<path d="M500.771 549.436C501.559 547.493 497.995 544.214 492.811 542.114C487.627 540.014 482.786 539.887 481.998 541.83C481.21 543.774 484.774 547.052 489.958 549.153C495.142 551.253 499.983 551.38 500.771 549.436Z" fill="#2F2E41"/>
<path d="M437.302 452.741C434.072 438.277 444.397 423.662 460.365 420.098C476.333 416.533 491.896 425.368 495.126 439.832C498.357 454.296 487.774 459.63 471.806 463.195C455.839 466.76 440.532 467.205 437.302 452.741Z" fill="#6C63FF"/>
<path d="M523.664 473.521C527.657 461.935 527.946 451.526 524.308 450.272C520.67 449.019 514.483 457.395 510.489 468.981C506.496 480.568 506.207 490.976 509.845 492.23C513.483 493.483 519.67 485.107 523.664 473.521Z" fill="#2F2E41"/>
<path d="M443.863 486.019C446.585 483.3 441.768 474.068 433.104 465.399C424.44 456.73 415.21 451.907 412.488 454.626C409.766 457.345 414.583 466.577 423.247 475.246C431.911 483.915 441.141 488.738 443.863 486.019Z" fill="#2F2E41"/>
<path d="M173.358 560.786C195.452 560.786 213.363 542.878 213.363 520.788C213.363 498.697 195.452 480.79 173.358 480.79C151.263 480.79 133.352 498.697 133.352 520.788C133.352 542.878 151.263 560.786 173.358 560.786Z" fill="#2F2E41"/>
<path d="M167.281 552.178H155.128V573.95H167.281V552.178Z" fill="#2F2E41"/>
<path d="M191.588 552.178H179.435V573.95H191.588V552.178Z" fill="#2F2E41"/>
<path d="M165.255 578C170.849 578 175.383 576.3 175.383 574.203C175.383 572.106 170.849 570.405 165.255 570.405C159.662 570.405 155.127 572.106 155.127 574.203C155.127 576.3 159.662 578 165.255 578Z" fill="#2F2E41"/>
<path d="M189.563 577.494C195.156 577.494 199.691 575.794 199.691 573.696C199.691 571.599 195.156 569.899 189.563 569.899C183.969 569.899 179.435 571.599 179.435 573.696C179.435 575.794 183.969 577.494 189.563 577.494Z" fill="#2F2E41"/>
<path d="M134.551 483.591C131.321 469.127 141.647 454.512 157.615 450.947C173.583 447.382 189.146 456.217 192.376 470.681C195.606 485.145 185.024 490.48 169.056 494.045C153.088 497.609 137.782 498.055 134.551 483.591Z" fill="#3F3D56"/>
<path d="M224.655 531.051C226.454 527.65 219.129 520.248 208.295 514.518C197.46 508.787 187.218 506.899 185.419 510.299C183.62 513.7 190.944 521.102 201.779 526.833C212.614 532.563 222.856 534.452 224.655 531.051Z" fill="#2F2E41"/>
<path d="M167.807 319.763C177.789 315.03 184.676 308.653 183.19 305.52C181.703 302.387 172.407 303.685 162.426 308.418C152.444 313.151 145.557 319.528 147.043 322.661C148.53 325.794 157.826 324.496 167.807 319.763Z" fill="#2F2E41"/>
<path d="M82.3213 343.625C89.4132 335.157 93.0067 326.487 90.3476 324.261C87.6886 322.035 79.7838 327.096 72.6919 335.565C65.6 344.033 62.0065 352.703 64.6656 354.929C67.3247 357.155 75.2294 352.094 82.3213 343.625Z" fill="#2F2E41"/>
<path d="M120.057 372.648C142.151 372.648 160.062 354.74 160.062 332.65C160.062 310.56 142.151 292.652 120.057 292.652C97.9627 292.652 80.0516 310.56 80.0516 332.65C80.0516 354.74 97.9627 372.648 120.057 372.648Z" fill="#2F2E41"/>
<path d="M115.278 364.041H103.124V385.812H115.278V364.041Z" fill="#2F2E41"/>
<path d="M139.585 364.041H127.431V385.812H139.585V364.041Z" fill="#2F2E41"/>
<path d="M113.252 389.862C118.846 389.862 123.38 388.162 123.38 386.065C123.38 383.968 118.846 382.268 113.252 382.268C107.659 382.268 103.124 383.968 103.124 386.065C103.124 388.162 107.659 389.862 113.252 389.862Z" fill="#2F2E41"/>
<path d="M137.559 389.356C143.153 389.356 147.687 387.656 147.687 385.559C147.687 383.461 143.153 381.761 137.559 381.761C131.966 381.761 127.431 383.461 127.431 385.559C127.431 387.656 131.966 389.356 137.559 389.356Z" fill="#2F2E41"/>
<path d="M132.618 282.371C129.046 267.988 113.278 259.524 97.3993 263.466C81.5205 267.408 71.5439 282.264 75.1161 296.647C78.6883 311.03 90.5396 311.077 106.418 307.134C122.297 303.192 136.191 296.755 132.618 282.371Z" fill="#6C63FF"/>
<path d="M126.038 337.545C133.404 337.545 139.376 331.575 139.376 324.21C139.376 316.845 133.404 310.875 126.038 310.875C118.672 310.875 112.7 316.845 112.7 324.21C112.7 331.575 118.672 337.545 126.038 337.545Z" fill="white"/>
<path d="M126.875 334.091C129.331 334.091 131.321 332.101 131.321 329.646C131.321 327.191 129.331 325.201 126.875 325.201C124.42 325.201 122.429 327.191 122.429 329.646C122.429 332.101 124.42 334.091 126.875 334.091Z" fill="#3F3D56"/>
<path d="M117.671 351.993C117.462 353.142 117.481 354.321 117.727 355.462C117.974 356.603 118.443 357.684 119.107 358.644C119.772 359.605 120.619 360.424 121.6 361.057C122.581 361.69 123.678 362.123 124.826 362.332C125.975 362.541 127.154 362.522 128.295 362.276C129.437 362.029 130.519 361.561 131.479 360.896C132.439 360.232 133.259 359.385 133.892 358.404C134.525 357.423 134.958 356.327 135.167 355.178L135.17 355.161C136.045 350.329 132.309 348.62 127.477 347.745C122.644 346.87 118.546 347.162 117.671 351.993Z" fill="white"/>
<path d="M639.894 577.655L20.5472 577.94C20.4017 577.941 20.2575 577.912 20.123 577.857C19.9884 577.802 19.8661 577.72 19.7631 577.617C19.66 577.515 19.5783 577.393 19.5225 577.258C19.4667 577.124 19.438 576.98 19.438 576.834C19.438 576.689 19.4667 576.545 19.5225 576.41C19.5783 576.276 19.66 576.154 19.7631 576.051C19.8661 575.949 19.9884 575.867 20.123 575.812C20.2575 575.756 20.4017 575.728 20.5472 575.729L639.894 575.443C640.187 575.444 640.467 575.561 640.674 575.768C640.881 575.975 640.997 576.256 640.997 576.549C640.997 576.842 640.881 577.122 640.674 577.33C640.467 577.537 640.187 577.654 639.894 577.655Z" fill="#CACACA"/>
</g>
<defs>
<clipPath id="clip0_20_60">
<rect width="641" height="578" fill="white"/>
</clipPath>
</defs>
</svg>
